<?xml version="1.0" encoding="utf-8"?>
<!-- Generator: Adobe Illustrator 27.2.0, SVG Export Plug-In . SVG Version: 6.00 Build 0)  -->
<svg version="1.1" id="Layer_1" xmlns="http://www.w3.org/2000/svg" xmlns:xlink="http://www.w3.org/1999/xlink" x="0px" y="0px"
	 viewBox="0 0 249.99 140" style="enable-background:new 0 0 249.99 140;" xml:space="preserve">
<style type="text/css">
	.st0{fill:#DE1A59;}
</style>
<path class="st0" d="M14.8,124.86c-0.03,0-0.04-0.03-0.07-0.03h-0.98H4.05H0v6.19v3v5.94h4.05v-4.26h9.83v-0.01h0.92
	c1.57,0,2.84-1.35,2.92-3.03v-4.8C17.63,126.19,16.37,124.86,14.8,124.86 M192.81,135.57h-4.08V140h4.08V135.57z M92.17,124.84v3.3
	h6.71v11.83h4.06v-11.83h6.73v-3.3H92.17z M127.52,124.84L127.52,124.84h-0.47l0,11.06l-7.23-11.06h-6.07v15.13h3.59v-0.01h0.47
	l-0.01-10.73l7.02,10.73h6.28v-15.13H127.52z M231.72,124.84L231.72,124.84h-0.47l0.01,11.06l-7.23-11.06h-6.07v15.13h3.6v-0.01
	h0.47l-0.01-10.73l7.01,10.73h6.29v-15.13H231.72z M65.9,139.97h4.11v-15.13H65.9V139.97z M59.04,124.84l-5.69,11.27l-5.71-11.27
	h-4.82l7.65,15.13h5.74l7.65-15.13H59.04z M211.11,124.84l-5.7,11.27l-5.71-11.27h-4.82l7.65,15.13h5.73l7.66-15.13H211.11z
	 M88.05,128.1v-3.27H74.9h-0.81v3.27v2.71v3.35v2.38v3.34v0.07h0.35h0.47h0.14h3.37h9.65v-0.07v-1.43v-1.92H78.4v-2.38h9.65v-3.35
	H78.4v-2.71H88.05z M35.98,139.97h4.81l-7.65-15.14h-5.73l-7.66,15.14h4.82l1.29-2.57h8.81L35.98,139.97z M27.52,134.14l2.76-5.45
	l2.75,5.45H27.52z M149.38,139.97h4.83l-7.66-15.14h-5.73l-7.66,15.14h4.83l1.29-2.57h8.8L149.38,139.97z M140.93,134.14l2.76-5.45
	l2.75,5.45H140.93z M174.29,124.84h4.74l7.63,15.13h-4.83l-5.18-10.23l-2.81,5.55l2.37,4.68h-4.82l-5.18-10.23l-5.17,10.23h-4.81
	l4.63-9.17l0.01,0l3-5.97h4.73l2.84,5.69L174.29,124.84z M235.32,36.69C235.32,16.47,181.1,0.04,114.19,0
	C69.42-0.03,30.31,7.3,9.34,18.22c18.97-7.27,49.45-12,83.82-12.05c57.53-0.07,104.17,13.04,104.19,29.29
	c0.01,9.87-17.2,18.61-43.6,23.98l-15.1-40.29L122,63.81c-9.15,0.75-18.8,1.16-28.79,1.16C52.42,65.02,17.11,58.45,0,48.83
	c11.07,9.44,34.55,17.1,64.51,21.19v39.52h34.1V72.94c5.08,0.21,10.28,0.31,15.55,0.31c1.43,0,2.88-0.01,4.31-0.02l-13.54,36.3
	h67.59L158.02,70.8C203.25,65.52,235.3,52.25,235.32,36.69 M244.28,16.93l-2.14-2.99h-1.92v2.99h-1.51V8.35h3.87
	c0.5,0,0.94,0.06,1.35,0.19c0.4,0.13,0.74,0.31,1.02,0.54c0.28,0.23,0.5,0.52,0.65,0.86c0.15,0.33,0.22,0.72,0.22,1.14
	c0,0.36-0.06,0.68-0.15,0.96c-0.11,0.28-0.25,0.52-0.44,0.75c-0.18,0.21-0.39,0.4-0.65,0.55c-0.25,0.15-0.52,0.26-0.84,0.35
	l2.35,3.25H244.28z M243.78,10.07c-0.31-0.24-0.75-0.37-1.33-0.37h-2.23v2.9h2.24c0.55,0,0.99-0.13,1.3-0.39
	c0.33-0.26,0.49-0.61,0.49-1.06C244.26,10.67,244.1,10.31,243.78,10.07 M242.17,20.49c-4.31,0-7.81-3.46-7.81-7.72
	c0-4.24,3.5-7.71,7.81-7.71c4.31,0,7.82,3.47,7.82,7.71C249.99,17.03,246.48,20.49,242.17,20.49 M242.17,5.96
	c-3.81,0-6.9,3.06-6.9,6.81c0,3.77,3.1,6.83,6.9,6.83c3.82,0,6.92-3.06,6.92-6.83C249.08,9.02,245.98,5.96,242.17,5.96
	 M13.75,132.15H4.06v-3.77h9.69V132.15z"/>
</svg>
